HIERARCHY
ROOT Hips
{
	OFFSET 0.00000 0.00000 0.00000
	CHANNELS 6 Xposition Yposition Zposition Zrotation Yrotation Xrotation 
	JOINT LHipJoint
	{
		OFFSET 0 0 0
		CHANNELS 3 Zrotation Yrotation Xrotation
		JOINT LeftHip
		{
			OFFSET 1.55766 -1.60504 1.11378
			CHANNELS 3 Zrotation Yrotation Xrotation
			JOINT LeftKnee
			{
				OFFSET 2.29047 -6.29302 0.00000
				CHANNELS 3 Zrotation Yrotation Xrotation
				JOINT LeftAnkle
				{
					OFFSET 2.52265 -6.93093 0.00000
					CHANNELS 3 Zrotation Yrotation Xrotation
					JOINT LeftToe
					{
						OFFSET 0.17633 -0.48446 2.02656
						CHANNELS 3 Zrotation Yrotation Xrotation
						End Site
						{
							OFFSET 0.00000 -0.00000 1.04989
						}
					}
				}
			}
		}
	}
	JOINT RHipJoint
	{
		OFFSET 0 0 0
		CHANNELS 3 Zrotation Yrotation Xrotation
		JOINT RightHip
		{
			OFFSET -1.48599 -1.60504 1.11378
			CHANNELS 3 Zrotation Yrotation Xrotation
			JOINT RightKnee
			{
				OFFSET -2.27280 -6.24448 0.00000
				CHANNELS 3 Zrotation Yrotation Xrotation
				JOINT RightAnkle
				{
					OFFSET -2.50834 -6.89161 0.00000
					CHANNELS 3 Zrotation Yrotation Xrotation
					JOINT RightToe
					{
						OFFSET -0.26967 -0.74090 2.08741
						CHANNELS 3 Zrotation Yrotation Xrotation
						End Site
						{
							OFFSET -0.00000 -0.00000 1.10614
						}
					}
				}
			}
		}
	}
	JOINT lowerback
	{
		OFFSET 0 0 0
		CHANNELS 3 Zrotation Yrotation Xrotation
		JOINT Chest
		{
			OFFSET 0.06481 2.02437 -0.08472
			CHANNELS 3 Zrotation Yrotation Xrotation
			JOINT Chest2
			{
				OFFSET 0.00015 1.96711 0.18069
				CHANNELS 3 Zrotation Yrotation Xrotation
				JOINT lowerneck
				{
					OFFSET 0 0 0
					CHANNELS 3 Zrotation Yrotation Xrotation
					JOINT Neck
					{
						OFFSET -0.29961 1.68293 -0.13041
						CHANNELS 3 Zrotation Yrotation Xrotation
						JOINT Head
						{
							OFFSET 0.59697 1.61501 -0.14669
							CHANNELS 3 Zrotation Yrotation Xrotation
							End Site
							{
								OFFSET 0.22973 1.74906 -0.10148
							}
						}
					}
				}
				JOINT LeftCollar
				{
					OFFSET 0 0 0
					CHANNELS 3 Zrotation Yrotation Xrotation
					JOINT LeftShoulder
					{
						OFFSET 3.37968 1.02893 0.31147
CHANNELS 3 Zrotation Xrotation Yrotation
						JOINT LeftElbow
						{
OFFSET 0 -5.198070 -0.000000
CHANNELS 3 Zrotation Xrotation Yrotation
							JOINT LeftWrist
							{
OFFSET 0 -3.093700 -0.000000
CHANNELS 3 Zrotation Xrotation Yrotation
								JOINT lhand
								{
									OFFSET 0 0 0
CHANNELS 3 Zrotation Xrotation Yrotation
									JOINT LFingers
									{
OFFSET 0 -0.672630 -0.000000
CHANNELS 3 Zrotation Xrotation Yrotation
										End Site
										{
OFFSET 0 -0.542290 -0.000000
										}
									}
								}
								JOINT LThumb
								{
OFFSET 0 0.000000 0.000000
CHANNELS 3 Zrotation Xrotation Yrotation
									End Site
									{
OFFSET 0 -0.550570 0.550570
									}
								}
							}
						}
					}
				}
				JOINT RightCollar
				{
					OFFSET 0 0 0
					CHANNELS 3 Zrotation Yrotation Xrotation
					JOINT RightShoulder
					{
						OFFSET -3.38254 0.96355 -0.16120
CHANNELS 3 Zrotation Xrotation Yrotation
						JOINT RightElbow
						{
OFFSET 0 -5.452220 -0.000000
CHANNELS 3 Zrotation Xrotation Yrotation
							JOINT RightWrist
							{
OFFSET 0 -3.012840 -0.000000
CHANNELS 3 Zrotation Xrotation Yrotation
								JOINT rhand
								{
									OFFSET 0 0 0
CHANNELS 3 Zrotation Xrotation Yrotation
									JOINT RFingers
									{
OFFSET 0 -0.622300 -0.000000
CHANNELS 3 Zrotation Xrotation Yrotation
										End Site
										{
OFFSET 0 -0.501710 -0.000000
										}
									}
								}
								JOINT RThumb
								{
OFFSET 0 0.000000 0.000000
CHANNELS 3 Zrotation Xrotation Yrotation
									End Site
									{
OFFSET 0 -0.509370 0.509370
									}
								}
							}
						}
					}
				}
			}
		}
	}
}
MOTION
Frames: 8
Frame Time: 0.008333333333333333
-5.472397 16.309331 34.898767 -132.185322 -83.809871 143.258917 0.000000 0.000000 0.000000 -14.940608 -1.482355 -15.701689 0.717803 5.414043 15.093261 0.297700 -9.101406 -10.845748 0.808697 -5.739021 -16.028999 0.000000 0.000000 0.000000 0.000000 0.000000 0.000000 0.000000 0.000000 0.000000 0.000000 0.000000 0.000000 0.000000 0.000000 0.000000 4.345958 2.521634 -13.443761 -0.604809 2.562200 -5.167547 -2.693257 1.131870 2.308813 -32.209194 -4.827723 23.344157 43.773111 -15.676465 -5.543485 25.867958 -11.207121 1.228771 0.000000 0.000000 0.000000 7.253319 -23.380892 -37.852021 163.028253 -26.820522 115.925396 56.890145 -70.994189 46.651794 0.000000 0.000000 0.000000 -7.125000 0.000000 0.000000 6.894191 -32.418219 9.554600 0.000000 0.000000 0.000000 -0.103344 -24.076642 30.950515 -159.750732 -30.941484 -114.341003 -56.674053 9.447382 -9.302178 0.000000 0.000000 0.000000 7.125000 0.000000 0.000000 -19.941000 14.021737 -15.502917
-5.472992 16.309794 34.898701 -132.187967 -83.808813 143.278750 0.000000 0.000000 0.000000 -14.938625 -1.493065 -15.712266 0.717208 5.411729 15.086782 0.297700 -9.092019 -10.842244 0.809490 -5.741864 -16.037196 0.000000 0.000000 0.000000 0.000000 0.000000 0.000000 0.000000 0.000000 0.000000 0.000000 0.000000 0.000000 0.000000 0.000000 0.000000 4.498474 2.568903 -13.460884 -0.737228 2.609799 -5.156440 -2.909371 1.154810 2.345240 -32.067983 -4.861968 23.314870 43.833932 -15.692596 -5.539056 25.870073 -11.225962 1.235712 0.000000 0.000000 0.000000 7.462558 -23.311476 -37.839064 162.960160 -26.910366 115.894589 56.950636 -71.273967 46.724581 0.000000 0.000000 0.000000 -7.125000 0.000000 0.000000 6.880374 -32.516657 9.538799 0.000000 0.000000 0.000000 0.017968 -23.987525 30.938946 -159.687795 -31.016651 -114.308609 -56.677358 9.649547 -9.204335 0.000000 0.000000 0.000000 7.125000 0.000000 0.000000 -19.972601 14.179212 -15.459350
-5.473914 16.310257 34.898374 -132.172334 -83.804231 143.280306 0.000000 0.000000 0.000000 -14.931420 -1.501816 -15.721865 0.716547 5.409481 15.080172 0.297439 -9.085307 -10.836913 0.808717 -5.739158 -16.029532 0.000000 0.000000 0.000000 0.000000 0.000000 0.000000 0.000000 0.000000 0.000000 0.000000 0.000000 0.000000 0.000000 0.000000 0.000000 4.553926 2.592869 -13.462210 -0.786616 2.636119 -5.161718 -2.988211 1.167045 2.347071 -32.009671 -4.885377 23.288063 43.855196 -15.712122 -5.525749 25.860766 -11.238798 1.250552 0.000000 0.000000 0.000000 7.551103 -23.170976 -37.855154 162.879142 -27.016855 115.857842 57.031428 -71.547871 46.820672 0.000000 0.000000 0.000000 -7.125000 0.000000 0.000000 6.862119 -32.646950 9.517908 0.000000 0.000000 0.000000 0.006837 -23.862768 30.947547 -159.608669 -31.110879 -114.267794 -56.671068 9.862809 -9.085604 0.000000 0.000000 0.000000 7.125000 0.000000 0.000000 -20.005116 14.374350 -15.398616
-5.474934 16.310751 34.898012 -132.180948 -83.801455 143.306736 0.000000 0.000000 0.000000 -14.928039 -1.508063 -15.732016 0.715855 5.407013 15.073059 0.296986 -9.081831 -10.830145 0.807139 -5.733683 -16.013787 0.000000 0.000000 0.000000 0.000000 0.000000 0.000000 0.000000 0.000000 0.000000 0.000000 0.000000 0.000000 0.000000 0.000000 0.000000 4.561780 2.606681 -13.456586 -0.800199 2.653786 -5.174706 -3.004470 1.174907 2.332860 -31.987854 -4.904944 23.262795 43.857940 -15.734264 -5.508814 25.845066 -11.249423 1.269134 0.000000 0.000000 0.000000 7.584999 -22.996235 -37.888783 162.789704 -27.134165 115.817126 57.125629 -71.818090 46.925754 0.000000 0.000000 0.000000 -7.125000 0.000000 0.000000 6.844308 -32.792589 9.498081 0.000000 0.000000 0.000000 -0.064241 -23.719729 30.967391 -159.520392 -31.215739 -114.222133 -56.662113 10.031049 -8.991275 0.000000 0.000000 0.000000 7.125000 0.000000 0.000000 -20.028571 14.530801 -15.347518
-5.476057 16.311280 34.897615 -132.216648 -83.800728 143.360947 0.000000 0.000000 0.000000 -14.928965 -1.511567 -15.742792 0.715128 5.404303 15.065390 0.296325 -9.081897 -10.821816 0.804693 -5.725221 -15.989327 0.000000 0.000000 0.000000 0.000000 0.000000 0.000000 0.000000 0.000000 0.000000 0.000000 0.000000 0.000000 0.000000 0.000000 0.000000 4.518345 2.609590 -13.443496 -0.775342 2.662182 -5.195994 -2.953433 1.178080 2.301392 -32.005241 -4.920414 23.239194 43.840751 -15.759253 -5.487989 25.822456 -11.257687 1.291744 0.000000 0.000000 0.000000 7.560142 -22.784616 -37.941407 162.691134 -27.263212 115.772105 57.234381 -72.084316 47.040455 0.000000 0.000000 0.000000 -7.125000 0.000000 0.000000 6.827054 -32.954757 9.479504 0.000000 0.000000 0.000000 -0.199766 -23.556965 30.999388 -159.422219 -31.332093 -114.171228 -56.650346 10.149320 -8.924239 0.000000 0.000000 0.000000 7.125000 0.000000 0.000000 -20.041992 14.643915 -15.307323
-5.477499 16.311809 34.897091 -132.238990 -83.798474 143.399891 0.000000 0.000000 0.000000 -14.928173 -1.507629 -15.752932 0.714146 5.400702 15.054987 0.295473 -9.086798 -10.812341 0.803837 -5.722229 -15.980640 0.000000 0.000000 0.000000 0.000000 0.000000 0.000000 0.000000 0.000000 0.000000 0.000000 0.000000 0.000000 0.000000 0.000000 0.000000 4.380774 2.589728 -13.413232 -0.672122 2.649779 -5.233628 -2.771559 1.170885 2.234368 -32.096857 -4.927424 23.215593 43.782600 -15.787423 -5.456987 25.783564 -11.259527 1.321732 0.000000 0.000000 0.000000 7.423338 -22.496034 -38.028378 162.570810 -27.419991 115.716780 57.383267 -72.321855 47.157637 0.000000 0.000000 0.000000 -7.125000 0.000000 0.000000 6.824237 -33.142177 9.481853 0.000000 0.000000 0.000000 -0.453790 -23.350950 31.067641 -159.303182 -31.472553 -114.109129 -56.633108 10.284638 -8.836595 0.000000 0.000000 0.000000 7.125000 0.000000 0.000000 -20.058465 14.792395 -15.253198
-5.479013 16.312367 34.896562 -132.273881 -83.796398 143.451905 0.000000 0.000000 0.000000 -14.929037 -1.501645 -15.762215 0.712976 5.396293 15.042365 0.294554 -9.091888 -10.802375 0.803638 -5.721473 -15.978429 0.000000 0.000000 0.000000 0.000000 0.000000 0.000000 0.000000 0.000000 0.000000 0.000000 0.000000 0.000000 0.000000 0.000000 0.000000 4.223747 2.564185 -13.379975 -0.552712 2.631654 -5.276096 -2.563048 1.160905 2.158842 -32.206787 -4.930684 23.190446 43.714665 -15.814797 -5.419018 25.741534 -11.259063 1.354150 0.000000 0.000000 0.000000 7.267565 -22.178569 -38.123595 162.437625 -27.592988 115.655255 57.546869 -72.541030 47.268379 0.000000 0.000000 0.000000 -7.125000 0.000000 0.000000 6.830518 -33.332612 9.497002 0.000000 0.000000 0.000000 -0.734351 -23.128463 31.155121 -159.172151 -31.626652 -114.040526 -56.614437 10.409869 -8.749477 0.000000 0.000000 0.000000 7.125000 0.000000 0.000000 -20.073930 14.940484 -15.198198
-5.480600 16.312962 34.896033 -132.324786 -83.794613 143.520659 0.000000 0.000000 0.000000 -14.932012 -1.493513 -15.770478 0.711588 5.390938 15.027160 0.293563 -9.096979 -10.791864 0.804167 -5.723191 -15.983387 0.000000 0.000000 0.000000 0.000000 0.000000 0.000000 0.000000 0.000000 0.000000 0.000000 0.000000 0.000000 0.000000 0.000000 0.000000 4.047431 2.532782 -13.343879 -0.417252 2.607523 -5.323695 -2.328225 1.148014 2.074617 -32.335570 -4.929758 23.163407 43.636721 -15.841043 -5.373005 25.696446 -11.256088 1.389188 0.000000 0.000000 0.000000 7.093960 -21.829441 -38.227256 162.289736 -27.784509 115.586632 57.726556 -72.739096 47.371114 0.000000 0.000000 0.000000 -7.125000 0.000000 0.000000 6.847244 -33.525521 9.526818 0.000000 0.000000 0.000000 -1.041697 -22.887888 31.264401 -159.027436 -31.796290 -113.964500 -56.594273 10.521926 -8.663996 0.000000 0.000000 0.000000 7.125000 0.000000 0.000000 -20.088011 15.086389 -15.142797
